<mxfile host="app.diagrams.net" modified="2020-07-24T14:47:00.568Z" agent="5.0 (Macintosh; Intel Mac OS X 10_15_5) AppleWebKit/537.36 (KHTML, like Gecko) Chrome/83.0.4103.116 Safari/537.36" etag="ZG03e5BqbhEphGpI1qXE" version="13.5.3" type="github">
  <diagram id="kgpKYQtTHZ0yAKxKKP6v" name="Page-1">
    <mxGraphModel dx="1250" dy="754" grid="1" gridSize="10" guides="1" tooltips="1" connect="1" arrows="1" fold="1" page="1" pageScale="1" pageWidth="850" pageHeight="1100" math="0" shadow="0">
      <root>
        <mxCell id="0" />
        <mxCell id="1" parent="0" />
        <mxCell id="liN3mqE1u9r5XuBf_s4U-1" value="" style="endArrow=none;html=1;" edge="1" parent="1">
          <mxGeometry width="50" height="50" relative="1" as="geometry">
            <mxPoint x="329.5" y="440" as="sourcePoint" />
            <mxPoint x="329.5" y="120" as="targetPoint" />
          </mxGeometry>
        </mxCell>
        <mxCell id="liN3mqE1u9r5XuBf_s4U-2" value="DEVELOP" style="text;html=1;strokeColor=none;fillColor=none;align=center;verticalAlign=middle;whiteSpace=wrap;rounded=0;" vertex="1" parent="1">
          <mxGeometry x="300" y="90" width="60" height="40" as="geometry" />
        </mxCell>
        <mxCell id="liN3mqE1u9r5XuBf_s4U-3" value="" style="endArrow=classic;html=1;" edge="1" parent="1">
          <mxGeometry width="50" height="50" relative="1" as="geometry">
            <mxPoint x="330" y="180" as="sourcePoint" />
            <mxPoint x="250" y="230" as="targetPoint" />
          </mxGeometry>
        </mxCell>
        <mxCell id="liN3mqE1u9r5XuBf_s4U-4" value="Feature&amp;nbsp;" style="text;html=1;strokeColor=none;fillColor=none;align=center;verticalAlign=middle;whiteSpace=wrap;rounded=0;" vertex="1" parent="1">
          <mxGeometry x="210" y="230" width="40" height="20" as="geometry" />
        </mxCell>
        <mxCell id="liN3mqE1u9r5XuBf_s4U-5" value="PC Feature&amp;nbsp;" style="text;html=1;strokeColor=none;fillColor=none;align=center;verticalAlign=middle;whiteSpace=wrap;rounded=0;" vertex="1" parent="1">
          <mxGeometry x="110" y="170" width="80" height="20" as="geometry" />
        </mxCell>
        <mxCell id="liN3mqE1u9r5XuBf_s4U-6" value="" style="endArrow=classic;html=1;" edge="1" parent="1" target="liN3mqE1u9r5XuBf_s4U-5">
          <mxGeometry width="50" height="50" relative="1" as="geometry">
            <mxPoint x="330" y="150" as="sourcePoint" />
            <mxPoint x="230" y="205" as="targetPoint" />
          </mxGeometry>
        </mxCell>
      </root>
    </mxGraphModel>
  </diagram>
</mxfile>
